<svg xmlns="http://www.w3.org/2000/svg" xmlns:xlink="http://www.w3.org/1999/xlink" width="500" zoomAndPan="magnify" viewBox="0 0 375 374.999991" height="500" preserveAspectRatio="xMidYMid meet" version="1.0"><defs><g/><clipPath id="b0e3c7cf65"><path d="M 103.542969 55.847656 L 271.355469 55.847656 L 271.355469 223.660156 L 103.542969 223.660156 Z M 103.542969 55.847656 " clip-rule="nonzero"/></clipPath></defs><g clip-path="url(#b0e3c7cf65)"><path fill="#00ff81" d="M 112.839844 134.578125 C 113.886719 119.445312 119.414062 105.234375 128.902344 93.300781 C 135.023438 95.953125 141.550781 98.195312 148.363281 99.96875 C 145.230469 110.871094 143.449219 122.496094 143.050781 134.578125 Z M 182.273438 183.894531 L 182.273438 213.847656 C 173.683594 210.964844 165.695312 201.078125 159.972656 186.210938 C 166.9375 184.921875 174.417969 184.152344 182.273438 183.894531 Z M 163.652344 210.75 C 153.046875 207.175781 143.375 201.253906 135.292969 193.367188 C 140.171875 191.429688 145.484375 189.726562 151.140625 188.292969 C 154.507812 197.289062 158.773438 204.921875 163.652344 210.75 Z M 152.0625 145.019531 L 182.273438 145.019531 L 182.273438 174.789062 C 173.636719 175.0625 165.1875 176.015625 157.097656 177.605469 C 154.191406 167.527344 152.46875 156.328125 152.0625 145.019531 Z M 182.273438 104.804688 L 182.273438 134.574219 L 152.0625 134.574219 C 152.46875 123.261719 154.191406 112.070312 157.097656 101.992188 C 165.222656 103.589844 173.675781 104.535156 182.273438 104.804688 Z M 135.292969 86.230469 C 143.378906 78.347656 153.054688 72.421875 163.652344 68.855469 C 158.777344 74.667969 154.515625 82.304688 151.140625 91.304688 C 145.492188 89.871094 140.171875 88.164062 135.292969 86.230469 Z M 159.972656 93.382812 C 165.691406 78.5 173.691406 68.621094 182.273438 65.757812 L 182.273438 95.707031 C 174.410156 95.445312 166.929688 94.671875 159.972656 93.382812 Z M 148.359375 179.628906 C 141.558594 181.402344 135.027344 183.644531 128.898438 186.296875 C 119.414062 174.375 113.882812 160.160156 112.835938 145.019531 L 143.046875 145.019531 C 143.445312 157.09375 145.226562 168.71875 148.359375 179.628906 Z M 262.148438 144.988281 C 261.09375 160.15625 255.574219 174.378906 246.089844 186.296875 C 239.953125 183.644531 233.417969 181.40625 226.625 179.632812 C 229.75 168.734375 231.535156 157.105469 231.9375 144.988281 Z M 192.714844 95.707031 L 192.714844 65.757812 C 201.304688 68.621094 209.292969 78.507812 215.015625 93.382812 C 208.058594 94.671875 200.578125 95.445312 192.714844 95.707031 Z M 223.851562 91.304688 C 220.480469 82.308594 216.214844 74.667969 211.332031 68.855469 C 221.929688 72.421875 231.613281 78.34375 239.695312 86.230469 C 234.808594 88.164062 229.496094 89.871094 223.851562 91.304688 Z M 222.921875 134.578125 L 192.714844 134.578125 L 192.714844 104.808594 C 201.339844 104.53125 209.789062 103.582031 217.882812 101.996094 C 220.789062 112.058594 222.523438 123.253906 222.921875 134.578125 Z M 231.933594 134.578125 C 231.539062 122.503906 229.753906 110.882812 226.621094 99.976562 C 233.429688 98.199219 239.957031 95.960938 246.09375 93.304688 C 255.574219 105.230469 261.097656 119.4375 262.148438 134.582031 L 231.933594 134.582031 Z M 192.714844 174.792969 L 192.714844 144.988281 L 222.921875 144.988281 C 222.519531 156.335938 220.789062 167.539062 217.886719 177.601562 C 209.792969 176.007812 201.339844 175.0625 192.714844 174.792969 Z M 239.699219 193.367188 C 231.617188 201.25 221.933594 207.171875 211.328125 210.75 C 216.210938 204.921875 220.480469 197.289062 223.847656 188.292969 C 229.511719 189.730469 234.824219 191.429688 239.699219 193.367188 Z M 215.011719 186.210938 C 209.296875 201.082031 201.304688 210.960938 192.714844 213.847656 L 192.714844 183.894531 C 200.542969 184.152344 208.023438 184.921875 215.011719 186.210938 Z M 187.492188 55.847656 C 141.207031 55.847656 103.542969 93.511719 103.542969 139.800781 C 103.542969 186.085938 141.207031 223.75 187.492188 223.75 C 233.78125 223.75 271.445312 186.085938 271.445312 139.800781 C 271.445312 93.511719 233.78125 55.847656 187.492188 55.847656 Z M 187.492188 55.847656 " fill-opacity="1" fill-rule="evenodd"/></g><g fill="#00ff81" fill-opacity="1"><g transform="translate(8.563673, 284.43056)"><g><path d="M 44.15625 -38.984375 L 44.15625 0 L 39.03125 0 L 39.03125 -29.0625 L 26.078125 0 L 22.46875 0 L 9.46875 -29.125 L 9.46875 0 L 4.34375 0 L 4.34375 -38.984375 L 9.859375 -38.984375 L 24.28125 -6.765625 L 38.703125 -38.984375 Z M 44.15625 -38.984375 "/></g></g></g><g fill="#00ff81" fill-opacity="1"><g transform="translate(57.052024, 284.43056)"><g><path d="M 6.984375 -35.875 C 6.003906 -35.875 5.175781 -36.210938 4.5 -36.890625 C 3.832031 -37.566406 3.5 -38.394531 3.5 -39.375 C 3.5 -40.351562 3.832031 -41.175781 4.5 -41.84375 C 5.175781 -42.519531 6.003906 -42.859375 6.984375 -42.859375 C 7.921875 -42.859375 8.71875 -42.519531 9.375 -41.84375 C 10.03125 -41.175781 10.359375 -40.351562 10.359375 -39.375 C 10.359375 -38.394531 10.03125 -37.566406 9.375 -36.890625 C 8.71875 -36.210938 7.921875 -35.875 6.984375 -35.875 Z M 9.46875 -30.875 L 9.46875 0 L 4.34375 0 L 4.34375 -30.875 Z M 9.46875 -30.875 "/></g></g></g><g fill="#00ff81" fill-opacity="1"><g transform="translate(70.905841, 284.43056)"><g><path d="M 19.375 -31.4375 C 23.132812 -31.4375 26.175781 -30.296875 28.5 -28.015625 C 30.832031 -25.742188 32 -22.46875 32 -18.1875 L 32 0 L 26.921875 0 L 26.921875 -17.46875 C 26.921875 -20.539062 26.148438 -22.894531 24.609375 -24.53125 C 23.078125 -26.164062 20.976562 -26.984375 18.3125 -26.984375 C 15.601562 -26.984375 13.453125 -26.132812 11.859375 -24.4375 C 10.265625 -22.75 9.46875 -20.289062 9.46875 -17.0625 L 9.46875 0 L 4.34375 0 L 4.34375 -30.875 L 9.46875 -30.875 L 9.46875 -26.46875 C 10.476562 -28.050781 11.851562 -29.273438 13.59375 -30.140625 C 15.34375 -31.003906 17.269531 -31.4375 19.375 -31.4375 Z M 19.375 -31.4375 "/></g></g></g><g fill="#00ff81" fill-opacity="1"><g transform="translate(106.948282, 284.43056)"><g><path d="M 2.421875 -15.546875 C 2.421875 -18.703125 3.054688 -21.472656 4.328125 -23.859375 C 5.609375 -26.242188 7.363281 -28.09375 9.59375 -29.40625 C 11.832031 -30.71875 14.34375 -31.375 17.125 -31.375 C 19.53125 -31.375 21.765625 -30.816406 23.828125 -29.703125 C 25.890625 -28.597656 27.46875 -27.144531 28.5625 -25.34375 L 28.5625 -41.6875 L 33.734375 -41.6875 L 33.734375 0 L 28.5625 0 L 28.5625 -5.796875 C 27.539062 -3.960938 26.035156 -2.453125 24.046875 -1.265625 C 22.054688 -0.0859375 19.726562 0.5 17.0625 0.5 C 14.320312 0.5 11.832031 -0.171875 9.59375 -1.515625 C 7.363281 -2.867188 5.609375 -4.765625 4.328125 -7.203125 C 3.054688 -9.648438 2.421875 -12.429688 2.421875 -15.546875 Z M 28.5625 -15.484375 C 28.5625 -17.816406 28.085938 -19.847656 27.140625 -21.578125 C 26.203125 -23.304688 24.9375 -24.628906 23.34375 -25.546875 C 21.75 -26.460938 19.992188 -26.921875 18.078125 -26.921875 C 16.160156 -26.921875 14.414062 -26.46875 12.84375 -25.5625 C 11.269531 -24.664062 10.007812 -23.351562 9.0625 -21.625 C 8.125 -19.894531 7.65625 -17.867188 7.65625 -15.546875 C 7.65625 -13.179688 8.125 -11.125 9.0625 -9.375 C 10.007812 -7.632812 11.269531 -6.300781 12.84375 -5.375 C 14.414062 -4.457031 16.160156 -4 18.078125 -4 C 19.992188 -4 21.75 -4.457031 23.34375 -5.375 C 24.9375 -6.300781 26.203125 -7.632812 27.140625 -9.375 C 28.085938 -11.125 28.5625 -13.160156 28.5625 -15.484375 Z M 28.5625 -15.484375 "/></g></g></g><g fill="#00ff81" fill-opacity="1"><g transform="translate(145.018118, 284.43056)"><g><path d="M 28.5 -39.265625 L 28.5 -35.09375 L 17.796875 -35.09375 L 17.796875 0 L 12.671875 0 L 12.671875 -35.09375 L 1.921875 -35.09375 L 1.921875 -39.265625 Z M 28.5 -39.265625 "/></g></g></g><g fill="#00ff81" fill-opacity="1"><g transform="translate(175.485249, 284.43056)"><g><path d="M 19.65625 -31.4375 C 21.988281 -31.4375 24.09375 -30.9375 25.96875 -29.9375 C 27.84375 -28.945312 29.316406 -27.453125 30.390625 -25.453125 C 31.460938 -23.460938 32 -21.039062 32 -18.1875 L 32 0 L 26.921875 0 L 26.921875 -17.46875 C 26.921875 -20.539062 26.148438 -22.894531 24.609375 -24.53125 C 23.078125 -26.164062 20.976562 -26.984375 18.3125 -26.984375 C 15.601562 -26.984375 13.453125 -26.132812 11.859375 -24.4375 C 10.265625 -22.75 9.46875 -20.289062 9.46875 -17.0625 L 9.46875 0 L 4.34375 0 L 4.34375 -41.6875 L 9.46875 -41.6875 L 9.46875 -26.46875 C 10.476562 -28.050781 11.875 -29.273438 13.65625 -30.140625 C 15.4375 -31.003906 17.4375 -31.4375 19.65625 -31.4375 Z M 19.65625 -31.4375 "/></g></g></g><g fill="#00ff81" fill-opacity="1"><g transform="translate(211.52769, 284.43056)"><g><path d="M 32.5 -16.609375 C 32.5 -15.640625 32.441406 -14.609375 32.328125 -13.515625 L 7.65625 -13.515625 C 7.84375 -10.472656 8.882812 -8.097656 10.78125 -6.390625 C 12.675781 -4.679688 14.976562 -3.828125 17.6875 -3.828125 C 19.90625 -3.828125 21.753906 -4.34375 23.234375 -5.375 C 24.710938 -6.40625 25.753906 -7.785156 26.359375 -9.515625 L 31.875 -9.515625 C 31.050781 -6.546875 29.398438 -4.132812 26.921875 -2.28125 C 24.441406 -0.425781 21.363281 0.5 17.6875 0.5 C 14.757812 0.5 12.140625 -0.15625 9.828125 -1.46875 C 7.515625 -2.78125 5.703125 -4.644531 4.390625 -7.0625 C 3.078125 -9.488281 2.421875 -12.296875 2.421875 -15.484375 C 2.421875 -18.679688 3.054688 -21.476562 4.328125 -23.875 C 5.609375 -26.28125 7.40625 -28.128906 9.71875 -29.421875 C 12.03125 -30.722656 14.6875 -31.375 17.6875 -31.375 C 20.613281 -31.375 23.203125 -30.734375 25.453125 -29.453125 C 27.710938 -28.179688 29.453125 -26.425781 30.671875 -24.1875 C 31.890625 -21.957031 32.5 -19.429688 32.5 -16.609375 Z M 27.203125 -17.6875 C 27.203125 -19.632812 26.769531 -21.3125 25.90625 -22.71875 C 25.039062 -24.132812 23.867188 -25.207031 22.390625 -25.9375 C 20.910156 -26.664062 19.269531 -27.03125 17.46875 -27.03125 C 14.875 -27.03125 12.664062 -26.203125 10.84375 -24.546875 C 9.019531 -22.898438 7.976562 -20.613281 7.71875 -17.6875 Z M 27.203125 -17.6875 "/></g></g></g><g fill="#00ff81" fill-opacity="1"><g transform="translate(246.443811, 284.43056)"><g><path d="M 34.078125 -27.875 C 32.984375 -30.164062 31.40625 -31.941406 29.34375 -33.203125 C 27.28125 -34.460938 24.878906 -35.09375 22.140625 -35.09375 C 19.398438 -35.09375 16.929688 -34.460938 14.734375 -33.203125 C 12.535156 -31.941406 10.804688 -30.140625 9.546875 -27.796875 C 8.285156 -25.453125 7.65625 -22.738281 7.65625 -19.65625 C 7.65625 -16.582031 8.285156 -13.878906 9.546875 -11.546875 C 10.804688 -9.222656 12.535156 -7.429688 14.734375 -6.171875 C 16.929688 -4.910156 19.398438 -4.28125 22.140625 -4.28125 C 25.960938 -4.28125 29.113281 -5.425781 31.59375 -7.71875 C 34.070312 -10.007812 35.519531 -13.109375 35.9375 -17.015625 L 20.28125 -17.015625 L 20.28125 -21.171875 L 41.40625 -21.171875 L 41.40625 -17.234375 C 41.101562 -14.003906 40.085938 -11.046875 38.359375 -8.359375 C 36.628906 -5.679688 34.351562 -3.5625 31.53125 -2 C 28.71875 -0.4375 25.585938 0.34375 22.140625 0.34375 C 18.492188 0.34375 15.164062 -0.507812 12.15625 -2.21875 C 9.15625 -3.925781 6.78125 -6.300781 5.03125 -9.34375 C 3.289062 -12.382812 2.421875 -15.820312 2.421875 -19.65625 C 2.421875 -23.488281 3.289062 -26.929688 5.03125 -29.984375 C 6.78125 -33.046875 9.15625 -35.429688 12.15625 -37.140625 C 15.164062 -38.859375 18.492188 -39.71875 22.140625 -39.71875 C 26.304688 -39.71875 29.992188 -38.679688 33.203125 -36.609375 C 36.410156 -34.546875 38.75 -31.632812 40.21875 -27.875 Z M 34.078125 -27.875 "/></g></g></g><g fill="#00ff81" fill-opacity="1"><g transform="translate(290.257885, 284.43056)"><g><path d="M 2.421875 -15.546875 C 2.421875 -18.703125 3.054688 -21.472656 4.328125 -23.859375 C 5.609375 -26.242188 7.363281 -28.09375 9.59375 -29.40625 C 11.832031 -30.71875 14.320312 -31.375 17.0625 -31.375 C 19.769531 -31.375 22.117188 -30.789062 24.109375 -29.625 C 26.097656 -28.457031 27.582031 -26.992188 28.5625 -25.234375 L 28.5625 -30.875 L 33.734375 -30.875 L 33.734375 0 L 28.5625 0 L 28.5625 -5.75 C 27.539062 -3.945312 26.023438 -2.453125 24.015625 -1.265625 C 22.015625 -0.0859375 19.679688 0.5 17.015625 0.5 C 14.273438 0.5 11.796875 -0.171875 9.578125 -1.515625 C 7.359375 -2.867188 5.609375 -4.765625 4.328125 -7.203125 C 3.054688 -9.648438 2.421875 -12.429688 2.421875 -15.546875 Z M 28.5625 -15.484375 C 28.5625 -17.816406 28.085938 -19.847656 27.140625 -21.578125 C 26.203125 -23.304688 24.9375 -24.628906 23.34375 -25.546875 C 21.75 -26.460938 19.992188 -26.921875 18.078125 -26.921875 C 16.160156 -26.921875 14.414062 -26.46875 12.84375 -25.5625 C 11.269531 -24.664062 10.007812 -23.351562 9.0625 -21.625 C 8.125 -19.894531 7.65625 -17.867188 7.65625 -15.546875 C 7.65625 -13.179688 8.125 -11.125 9.0625 -9.375 C 10.007812 -7.632812 11.269531 -6.300781 12.84375 -5.375 C 14.414062 -4.457031 16.160156 -4 18.078125 -4 C 19.992188 -4 21.75 -4.457031 23.34375 -5.375 C 24.9375 -6.300781 26.203125 -7.632812 27.140625 -9.375 C 28.085938 -11.125 28.5625 -13.160156 28.5625 -15.484375 Z M 28.5625 -15.484375 "/></g></g></g><g fill="#00ff81" fill-opacity="1"><g transform="translate(328.327706, 284.43056)"><g><path d="M 9.46875 -25.171875 C 10.476562 -26.941406 11.988281 -28.414062 14 -29.59375 C 16.007812 -30.78125 18.347656 -31.375 21.015625 -31.375 C 23.753906 -31.375 26.238281 -30.71875 28.46875 -29.40625 C 30.707031 -28.09375 32.460938 -26.242188 33.734375 -23.859375 C 35.015625 -21.472656 35.65625 -18.703125 35.65625 -15.546875 C 35.65625 -12.429688 35.015625 -9.648438 33.734375 -7.203125 C 32.460938 -4.765625 30.707031 -2.867188 28.46875 -1.515625 C 26.238281 -0.171875 23.753906 0.5 21.015625 0.5 C 18.378906 0.5 16.054688 -0.0859375 14.046875 -1.265625 C 12.046875 -2.453125 10.519531 -3.925781 9.46875 -5.6875 L 9.46875 14.640625 L 4.34375 14.640625 L 4.34375 -30.875 L 9.46875 -30.875 Z M 30.421875 -15.546875 C 30.421875 -17.867188 29.945312 -19.894531 29 -21.625 C 28.0625 -23.351562 26.796875 -24.664062 25.203125 -25.5625 C 23.609375 -26.46875 21.851562 -26.921875 19.9375 -26.921875 C 18.0625 -26.921875 16.320312 -26.460938 14.71875 -25.546875 C 13.125 -24.628906 11.847656 -23.296875 10.890625 -21.546875 C 9.941406 -19.796875 9.46875 -17.773438 9.46875 -15.484375 C 9.46875 -13.160156 9.941406 -11.125 10.890625 -9.375 C 11.847656 -7.632812 13.125 -6.300781 14.71875 -5.375 C 16.320312 -4.457031 18.0625 -4 19.9375 -4 C 21.851562 -4 23.609375 -4.457031 25.203125 -5.375 C 26.796875 -6.300781 28.0625 -7.632812 29 -9.375 C 29.945312 -11.125 30.421875 -13.179688 30.421875 -15.546875 Z M 30.421875 -15.546875 "/></g></g></g><g fill="#00ff81" fill-opacity="1"><g transform="translate(104.414704, 314.830703)"><g><path d="M 5.453125 0.078125 C 4.546875 0.078125 3.726562 -0.117188 3 -0.515625 C 2.28125 -0.921875 1.710938 -1.476562 1.296875 -2.1875 C 0.878906 -2.894531 0.671875 -3.6875 0.671875 -4.5625 C 0.671875 -5.4375 0.878906 -6.226562 1.296875 -6.9375 C 1.710938 -7.644531 2.285156 -8.195312 3.015625 -8.59375 C 3.742188 -9 4.554688 -9.203125 5.453125 -9.203125 C 6.128906 -9.203125 6.753906 -9.085938 7.328125 -8.859375 C 7.910156 -8.628906 8.398438 -8.300781 8.796875 -7.875 L 8.1875 -7.265625 C 7.46875 -7.984375 6.566406 -8.34375 5.484375 -8.34375 C 4.765625 -8.34375 4.109375 -8.175781 3.515625 -7.84375 C 2.921875 -7.507812 2.457031 -7.054688 2.125 -6.484375 C 1.789062 -5.910156 1.625 -5.269531 1.625 -4.5625 C 1.625 -3.851562 1.789062 -3.207031 2.125 -2.625 C 2.457031 -2.050781 2.921875 -1.597656 3.515625 -1.265625 C 4.109375 -0.941406 4.765625 -0.78125 5.484375 -0.78125 C 6.578125 -0.78125 7.476562 -1.144531 8.1875 -1.875 L 8.796875 -1.265625 C 8.398438 -0.828125 7.910156 -0.492188 7.328125 -0.265625 C 6.753906 -0.0351562 6.128906 0.078125 5.453125 0.078125 Z M 5.453125 0.078125 "/></g></g></g><g fill="#00ff81" fill-opacity="1"><g transform="translate(124.209904, 314.830703)"><g><path d="M 9.109375 -9.125 L 9.109375 0 L 8.15625 0 L 8.15625 -4.203125 L 2.453125 -4.203125 L 2.453125 0 L 1.484375 0 L 1.484375 -9.125 L 2.453125 -9.125 L 2.453125 -5.0625 L 8.15625 -5.0625 L 8.15625 -9.125 Z M 9.109375 -9.125 "/></g></g></g><g fill="#00ff81" fill-opacity="1"><g transform="translate(145.229222, 314.830703)"><g><path d="M 7.203125 -2.4375 L 2.125 -2.4375 L 1.03125 0 L 0.03125 0 L 4.203125 -9.125 L 5.140625 -9.125 L 9.3125 0 L 8.296875 0 Z M 6.859375 -3.21875 L 4.671875 -8.125 L 2.46875 -3.21875 Z M 6.859375 -3.21875 "/></g></g></g><g fill="#00ff81" fill-opacity="1"><g transform="translate(164.998371, 314.830703)"><g><path d="M 1.484375 -9.125 L 2.453125 -9.125 L 2.453125 -0.828125 L 7.5625 -0.828125 L 7.5625 0 L 1.484375 0 Z M 1.484375 -9.125 "/></g></g></g><g fill="#00ff81" fill-opacity="1"><g transform="translate(183.100634, 314.830703)"><g><path d="M 1.484375 -9.125 L 2.453125 -9.125 L 2.453125 -0.828125 L 7.5625 -0.828125 L 7.5625 0 L 1.484375 0 Z M 1.484375 -9.125 "/></g></g></g><g fill="#00ff81" fill-opacity="1"><g transform="translate(201.202897, 314.830703)"><g><path d="M 7.9375 -0.828125 L 7.9375 0 L 1.484375 0 L 1.484375 -9.125 L 7.734375 -9.125 L 7.734375 -8.28125 L 2.453125 -8.28125 L 2.453125 -5.046875 L 7.171875 -5.046875 L 7.171875 -4.21875 L 2.453125 -4.21875 L 2.453125 -0.828125 Z M 7.9375 -0.828125 "/></g></g></g><g fill="#00ff81" fill-opacity="1"><g transform="translate(220.346973, 314.830703)"><g><path d="M 9.109375 -9.125 L 9.109375 0 L 8.3125 0 L 2.453125 -7.40625 L 2.453125 0 L 1.484375 0 L 1.484375 -9.125 L 2.28125 -9.125 L 8.15625 -1.71875 L 8.15625 -9.125 Z M 9.109375 -9.125 "/></g></g></g><g fill="#00ff81" fill-opacity="1"><g transform="translate(241.366285, 314.830703)"><g><path d="M 7.90625 -4.5625 L 8.828125 -4.5625 L 8.828125 -1.078125 C 8.410156 -0.703125 7.910156 -0.414062 7.328125 -0.21875 C 6.742188 -0.0195312 6.128906 0.078125 5.484375 0.078125 C 4.578125 0.078125 3.753906 -0.117188 3.015625 -0.515625 C 2.285156 -0.921875 1.710938 -1.476562 1.296875 -2.1875 C 0.878906 -2.894531 0.671875 -3.6875 0.671875 -4.5625 C 0.671875 -5.4375 0.878906 -6.226562 1.296875 -6.9375 C 1.710938 -7.644531 2.285156 -8.195312 3.015625 -8.59375 C 3.753906 -9 4.582031 -9.203125 5.5 -9.203125 C 6.195312 -9.203125 6.832031 -9.085938 7.40625 -8.859375 C 7.988281 -8.640625 8.484375 -8.316406 8.890625 -7.890625 L 8.28125 -7.265625 C 7.5625 -7.984375 6.644531 -8.34375 5.53125 -8.34375 C 4.800781 -8.34375 4.132812 -8.175781 3.53125 -7.84375 C 2.9375 -7.519531 2.46875 -7.066406 2.125 -6.484375 C 1.789062 -5.910156 1.625 -5.269531 1.625 -4.5625 C 1.625 -3.851562 1.789062 -3.207031 2.125 -2.625 C 2.46875 -2.050781 2.9375 -1.597656 3.53125 -1.265625 C 4.125 -0.941406 4.789062 -0.78125 5.53125 -0.78125 C 6.46875 -0.78125 7.257812 -1.015625 7.90625 -1.484375 Z M 7.90625 -4.5625 "/></g></g></g><g fill="#00ff81" fill-opacity="1"><g transform="translate(261.864712, 314.830703)"><g><path d="M 7.9375 -0.828125 L 7.9375 0 L 1.484375 0 L 1.484375 -9.125 L 7.734375 -9.125 L 7.734375 -8.28125 L 2.453125 -8.28125 L 2.453125 -5.046875 L 7.171875 -5.046875 L 7.171875 -4.21875 L 2.453125 -4.21875 L 2.453125 -0.828125 Z M 7.9375 -0.828125 "/></g></g></g></svg>